<?xml version="1.0" standalone="no"?>
<!DOCTYPE svg PUBLIC "-//W3C//DTD SVG 20010904//EN"
 "http://www.w3.org/TR/2001/REC-SVG-20010904/DTD/svg10.dtd">
<svg version="1.0" xmlns="http://www.w3.org/2000/svg"
 width="536.000000pt" height="536.000000pt" viewBox="0 0 536.000000 536.000000"
 preserveAspectRatio="xMidYMid meet">

<g transform="translate(0.000000,536.000000) scale(0.100000,-0.100000)"
fill="#000000" stroke="none">
<path d="M3617 4733 c-4 -3 -7 -14 -7 -24 0 -10 -12 -21 -30 -27 -36 -13 -31
-42 6 -42 20 0 24 -5 24 -31 0 -24 4 -30 18 -27 10 2 18 14 20 31 2 18 9 27
21 27 9 0 22 5 29 12 15 15 -3 38 -29 38 -14 0 -19 7 -19 25 0 24 -18 34 -33
18z"/>
<path d="M2495 4619 c-206 -72 -573 -199 -597 -206 -10 -3 -18 -8 -18 -12 0
-4 136 -58 303 -121 166 -62 345 -131 397 -152 52 -21 103 -38 115 -38 18 0
382 134 393 144 4 5 -19 11 -153 41 -217 48 -220 49 -220 76 0 22 -5 25 -35
21 -6 -1 -15 -13 -20 -27 -6 -15 -17 -25 -30 -25 -46 0 -37 70 13 101 44 28
91 19 136 -25 27 -26 50 -37 96 -46 33 -6 74 -15 90 -20 17 -4 74 -18 128 -30
l98 -22 66 22 c57 19 71 21 106 10 26 -8 36 -15 30 -21 -6 -6 -68 -33 -139
-60 -274 -107 -519 -199 -545 -204 -17 -4 -46 1 -76 14 -26 11 -95 38 -153 60
-58 22 -181 70 -275 107 -93 36 -199 77 -235 91 -36 14 -97 38 -137 54 -70 29
-97 30 -106 5 -11 -27 18 -42 200 -112 l188 -71 5 -48 c3 -28 11 -51 20 -56 8
-4 76 -29 150 -54 74 -26 190 -67 257 -91 68 -24 134 -44 147 -44 13 0 60 13
103 29 78 29 166 60 338 121 122 43 120 41 123 89 2 29 9 45 25 55 18 12 161
66 174 66 2 0 3 -49 3 -110 0 -110 0 -110 24 -110 31 0 34 12 32 133 -3 110
-2 112 77 141 47 18 68 40 60 64 -7 19 -43 15 -114 -13 -54 -22 -68 -24 -92
-14 -34 14 -31 29 11 43 64 22 57 31 -55 69 -60 20 -241 81 -403 136 -162 56
-304 101 -315 100 -11 0 -96 -27 -190 -60z"/>
<path d="M1070 4653 c-31 -10 -60 -27 -60 -34 0 -5 55 -10 123 -11 l122 -3 3
-230 c1 -126 0 -240 -3 -252 l-5 -23 -283 0 c-207 0 -286 3 -295 12 -7 7 -12
36 -12 64 0 29 -3 55 -7 57 -5 3 -20 -13 -35 -34 -15 -22 -23 -39 -18 -39 6 0
10 -20 10 -44 0 -25 6 -48 14 -55 9 -8 109 -11 347 -9 l334 3 3 289 c2 205 -1
293 -9 302 -8 10 -38 14 -113 13 -55 0 -108 -3 -116 -6z"/>
<path d="M1609 4638 c-1 -7 -2 -17 -4 -23 -1 -5 -3 -15 -3 -22 -1 -6 -14 -13
-29 -15 -17 -2 -28 -9 -28 -18 0 -9 11 -16 28 -18 20 -3 27 -9 27 -25 0 -31
15 -51 34 -44 10 4 16 18 16 37 0 27 3 30 30 30 23 0 30 5 30 19 0 14 -8 21
-27 23 -22 2 -29 9 -33 33 -5 30 -39 49 -41 23z"/>
<path d="M3950 4585 c-17 -20 -5 -45 20 -45 11 0 23 7 26 15 6 15 -11 45 -26
45 -4 0 -13 -7 -20 -15z"/>
<path d="M4044 4585 c-9 -23 4 -47 23 -43 22 4 30 38 11 49 -19 13 -28 11 -34
-6z"/>
<path d="M4334 4590 c-62 -25 -134 -154 -134 -241 0 -45 26 -127 47 -151 14
-16 13 -20 -11 -49 -15 -17 -25 -37 -23 -43 7 -20 38 -18 62 4 l24 22 30 -21
c97 -69 230 -67 329 7 l33 24 24 -22 c25 -23 55 -21 55 3 0 8 -9 22 -19 31
-11 10 -21 30 -23 45 -2 19 -9 27 -28 29 -14 2 -39 19 -57 38 -35 38 -45 41
-63 20 -9 -12 -4 -23 29 -59 38 -41 40 -45 23 -59 -58 -51 -170 -65 -240 -29
-125 64 -170 209 -102 329 17 28 34 52 38 52 4 0 22 13 40 29 32 28 32 30 13
40 -22 12 -19 12 -47 1z"/>
<path d="M920 4515 c-5 -14 -10 -32 -10 -40 0 -7 -16 -16 -36 -20 -84 -15 -90
-55 -8 -55 l43 0 3 -77 c3 -70 5 -78 23 -78 18 0 20 8 23 78 l3 77 53 0 c56 0
83 17 72 45 -4 11 -21 15 -65 15 l-60 0 -3 37 c-4 44 -24 54 -38 18z"/>
<path d="M1133 4444 c-3 -8 2 -23 11 -32 15 -15 17 -15 32 0 21 21 11 48 -16
48 -11 0 -23 -7 -27 -16z"/>
<path d="M4462 4353 c2 -22 8 -28 28 -28 20 0 26 6 28 28 3 24 0 27 -28 27
-28 0 -31 -3 -28 -27z"/>
<path d="M1043 4293 c-20 -7 -17 -102 3 -110 21 -8 34 14 34 58 0 38 -16 60
-37 52z"/>
<path d="M802 4277 c-9 -10 -8 -18 2 -32 18 -25 48 -13 44 17 -4 27 -30 35
-46 15z"/>
<path d="M1133 4274 c-3 -8 2 -23 11 -32 15 -15 17 -15 32 0 21 21 11 48 -16
48 -11 0 -23 -7 -27 -16z"/>
<path d="M1581 4230 c-19 -11 -9 -45 14 -45 13 0 21 8 23 21 3 23 -17 37 -37
24z"/>
<path d="M3864 4196 c-66 -29 -95 -112 -60 -174 30 -55 111 -78 166 -47 24 13
27 11 68 -28 37 -37 42 -46 42 -87 0 -36 5 -52 24 -69 53 -50 136 -14 136 59
0 47 -33 80 -85 84 -31 2 -46 11 -81 52 -37 42 -44 55 -44 92 0 54 -24 97 -66
117 -39 18 -59 18 -100 1z m95 -59 c6 -8 14 -28 17 -45 5 -25 1 -36 -19 -56
-15 -14 -35 -26 -47 -26 -12 0 -32 12 -47 26 -20 20 -24 31 -19 57 3 18 14 38
23 45 22 16 78 15 92 -1z m225 -263 c22 -21 4 -54 -29 -54 -14 0 -25 2 -25 4
0 2 -3 11 -6 19 -5 14 20 47 36 47 5 0 16 -7 24 -16z"/>
<path d="M1747 4043 c-4 -3 -7 -21 -7 -39 0 -31 -2 -33 -37 -36 -30 -2 -38 -7
-38 -23 0 -16 8 -21 38 -23 33 -3 37 -6 37 -31 0 -15 7 -36 15 -47 15 -19 15
-19 30 0 8 11 15 32 15 48 0 24 4 28 29 28 16 0 34 7 41 15 19 23 -3 43 -40
37 -28 -4 -36 3 -31 32 6 33 -31 61 -52 39z"/>
<path d="M2132 3988 c-17 -17 -15 -152 2 -186 8 -15 23 -35 33 -44 18 -16 272
-115 454 -176 l75 -25 165 61 c90 33 200 73 244 88 48 17 94 41 115 60 33 30
35 36 38 108 2 42 1 88 -2 102 -8 31 -7 32 -166 -26 -63 -23 -153 -56 -200
-72 -47 -17 -94 -34 -105 -38 -83 -34 -89 -34 -223 13 -161 57 -339 122 -375
136 -36 14 -40 14 -55 -1z"/>
<path d="M3400 3950 c-7 -12 -9 -97 -8 -232 3 -205 4 -213 23 -213 13 0 23 10
29 30 14 41 13 41 37 19 21 -19 21 -18 45 9 23 27 24 33 24 202 0 95 -3 180
-6 189 -5 12 -21 16 -70 16 -53 0 -65 -3 -74 -20z m98 -180 c3 -157 -1 -176
-29 -141 -16 20 -19 40 -19 145 0 68 3 126 7 130 4 4 14 5 23 4 12 -3 15 -26
18 -138z"/>
<path d="M904 3895 c-4 -9 -2 -21 4 -27 15 -15 44 -1 40 19 -4 23 -36 29 -44
8z"/>
<path d="M623 3863 c-7 -2 -13 -17 -13 -33 0 -21 -6 -29 -25 -34 -32 -8 -34
-43 -2 -48 21 -3 22 -7 25 -118 l3 -115 -32 -12 c-37 -14 -34 -37 4 -41 36 -4
39 -49 5 -54 -31 -4 -35 -34 -6 -44 13 -4 70 -7 128 -6 58 1 186 1 285 1 290
1 285 0 285 32 0 19 -4 21 -49 23 -18 1 -27 8 -31 25 -8 37 -29 37 -41 1 -10
-27 -15 -31 -43 -28 -23 2 -32 8 -34 26 -4 30 -30 28 -42 -3 -8 -21 -16 -25
-50 -25 -33 0 -40 3 -40 19 0 11 -4 22 -9 25 -16 10 -41 -6 -41 -26 0 -16 -6
-19 -37 -16 -31 2 -39 7 -41 26 -2 14 -10 22 -22 22 -12 0 -20 -8 -22 -22 -3
-20 -10 -23 -60 -26 -56 -3 -58 -2 -58 23 0 22 4 25 33 25 42 0 49 6 72 60 26
61 30 65 56 46 41 -28 58 -20 87 42 42 87 40 85 69 62 43 -34 59 -26 104 50
40 68 45 100 15 100 -8 0 -30 -25 -48 -55 l-34 -56 -26 21 c-46 36 -64 27 -99
-47 -17 -38 -33 -70 -35 -72 -3 -3 -18 3 -35 13 -16 10 -36 15 -44 12 -8 -3
-27 -32 -41 -66 -22 -48 -32 -60 -50 -60 l-24 0 -2 177 c-3 172 -6 188 -35
176z"/>
<path d="M3837 3853 c-16 -15 -6 -33 18 -33 23 0 25 -4 25 -40 0 -28 5 -43 16
-47 19 -7 36 15 29 38 -8 25 5 49 26 49 12 0 19 7 19 20 0 18 -7 20 -63 20
-35 0 -67 -3 -70 -7z"/>
<path d="M1350 3820 c0 -27 -3 -30 -29 -30 -17 0 -33 -5 -36 -10 -10 -16 15
-40 41 -40 20 0 24 -5 24 -29 0 -16 6 -31 14 -34 19 -8 26 1 26 35 0 23 4 28
23 28 13 0 28 5 34 11 18 18 3 39 -28 39 -26 0 -29 4 -29 30 0 23 -4 30 -20
30 -16 0 -20 -7 -20 -30z"/>
<path d="M4400 3830 c0 -10 -10 -25 -22 -31 l-22 -12 22 -17 c12 -10 22 -28
22 -39 0 -12 6 -21 15 -21 8 0 15 7 15 15 0 8 9 23 20 32 11 10 20 23 20 29 0
6 -9 14 -20 17 -12 3 -20 14 -20 26 0 12 -6 21 -15 21 -8 0 -15 -9 -15 -20z"/>
<path d="M4747 3813 c-4 -3 -7 -95 -7 -203 0 -108 -2 -199 -5 -202 -3 -3 -15
-3 -28 -1 -22 4 -22 6 -19 151 3 115 0 151 -11 166 -29 40 -37 9 -37 -148 0
-160 -6 -184 -43 -170 -14 5 -17 27 -19 127 -3 101 -6 122 -18 122 -12 0 -16
-22 -20 -118 -4 -86 -9 -120 -19 -126 -31 -20 -41 -1 -41 79 0 53 -4 81 -14
89 -23 19 -35 -9 -38 -94 -3 -72 -5 -80 -23 -80 -16 0 -21 8 -25 47 -7 53 -13
63 -35 55 -10 -5 -15 -20 -15 -52 0 -42 -2 -45 -27 -46 -88 -3 -88 -3 -88 -29
l0 -24 280 -1 c154 0 294 2 310 5 37 7 43 43 8 48 -23 3 -23 4 -23 196 0 136
-3 195 -12 204 -14 14 -22 15 -31 5z"/>
<path d="M4144 3606 c-9 -24 4 -48 23 -44 12 2 18 12 18 28 0 29 -32 41 -41
16z"/>
<path d="M1635 3566 c-38 -17 -60 -41 -80 -89 -12 -30 -15 -89 -15 -340 0
-193 4 -316 11 -338 6 -19 27 -49 47 -66 30 -28 43 -33 86 -33 105 0 155 65
156 201 0 62 4 82 23 110 73 109 179 122 905 116 440 -3 526 -6 580 -20 150
-40 192 -91 192 -235 0 -109 53 -172 144 -172 48 0 58 4 97 39 l44 39 3 343
c2 320 1 346 -16 379 -31 56 -64 75 -134 75 -46 0 -63 -4 -66 -15 -9 -26 -95
-101 -142 -123 -45 -22 -47 -22 -775 -22 -840 0 -789 -5 -870 90 -62 72 -121
91 -190 61z"/>
<path d="M4031 3216 c-9 -11 -8 -18 5 -31 15 -15 19 -15 32 -1 17 17 10 46
-11 46 -8 0 -20 -6 -26 -14z"/>
<path d="M890 3150 c0 -13 7 -20 20 -20 13 0 20 7 20 20 0 13 -7 20 -20 20
-13 0 -20 -7 -20 -20z"/>
<path d="M622 3148 c-7 -7 -12 -29 -12 -49 0 -31 -4 -38 -22 -41 -15 -2 -23
-10 -23 -23 0 -13 8 -21 23 -23 20 -3 22 -8 22 -76 0 -68 -2 -74 -25 -84 -31
-14 -33 -40 -2 -44 20 -3 22 -9 25 -66 3 -59 2 -63 -23 -72 -32 -12 -30 -44 3
-48 31 -5 29 -40 -4 -52 -16 -7 -24 -16 -22 -28 3 -16 27 -17 296 -20 185 -1
300 1 312 8 13 7 20 23 22 53 3 38 6 42 31 45 19 2 27 9 27 23 0 14 -7 19 -30
19 l-30 0 0 168 c0 164 0 167 23 177 28 13 29 39 0 43 -18 3 -22 11 -25 45 -2
34 -7 42 -23 42 -19 0 -20 -8 -25 -235 l-5 -235 -207 -3 c-199 -2 -208 -3
-208 -22 0 -19 9 -20 208 -22 l207 -3 0 -25 0 -25 -237 -3 -238 -2 0 284 c0
223 -3 286 -13 295 -10 8 -17 7 -25 -1z"/>
<path d="M4455 3148 c-11 -6 -21 -12 -23 -13 -1 -1 -7 -16 -12 -34 -7 -26 -5
-36 16 -61 l25 -29 -43 -12 c-96 -25 -140 -60 -183 -146 -25 -50 -27 -52 -58
-46 -18 3 -38 14 -45 24 -7 10 -19 16 -28 12 -23 -9 -16 -127 8 -131 12 -2 21
6 28 22 7 20 16 26 40 26 17 0 32 -6 34 -12 2 -7 9 -31 15 -54 6 -22 21 -56
34 -75 29 -44 121 -99 164 -99 40 0 55 -24 27 -44 -15 -12 -16 -16 -5 -30 17
-20 74 -21 91 -1 14 17 5 35 -17 35 -10 0 -13 6 -9 16 3 9 6 18 6 20 0 2 10 4
23 4 24 0 78 30 116 64 64 58 90 189 52 271 -25 55 -99 121 -153 135 -61 17
-61 18 -33 52 14 16 25 33 25 38 0 23 -25 59 -47 69 -28 13 -23 13 -48 -1z
m45 -58 c0 -13 -7 -20 -20 -20 -19 0 -27 20 -13 33 13 14 33 6 33 -13z m66
-161 c53 -26 88 -68 104 -127 41 -155 -135 -285 -287 -211 -53 26 -88 69 -104
131 -41 153 133 279 287 207z"/>
<path d="M4415 2780 c-13 -21 8 -30 66 -30 52 0 59 2 59 20 0 18 -7 20 -59 20
-33 0 -63 -4 -66 -10z"/>
<path d="M4712 3094 c-54 -58 -60 -77 -26 -82 14 -2 38 15 73 53 43 46 51 58
41 70 -20 24 -31 18 -88 -41z"/>
<path d="M764 3103 c-4 -15 -16 -35 -28 -44 -19 -16 -19 -17 17 -34 36 -17 38
-17 57 0 23 21 26 45 6 45 -8 0 -16 12 -18 27 -4 36 -26 41 -34 6z"/>
<path d="M1071 3056 c-14 -17 -7 -36 14 -36 22 0 29 20 13 36 -13 13 -16 13
-27 0z"/>
<path d="M2330 2373 c0 -444 -4 -714 -11 -743 -12 -54 -49 -104 -92 -127 -18
-9 -63 -22 -101 -29 -38 -8 -80 -21 -93 -30 -28 -18 -53 -70 -53 -112 0 -35
37 -92 70 -109 19 -10 168 -13 641 -13 l616 0 34 23 c62 41 77 111 37 174 -24
39 -59 58 -133 68 -98 15 -159 64 -183 151 -9 30 -12 238 -12 743 l0 701 -160
0 -160 0 -2 -792 -3 -793 -35 0 -35 0 -3 793 -2 792 -160 0 -160 0 0 -697z"/>
<path d="M4124 2989 c-24 -26 -8 -54 31 -54 39 0 55 28 31 54 -24 26 -38 26
-62 0z"/>
<path d="M737 2963 c-10 -3 -17 -12 -15 -21 3 -15 23 -17 173 -17 163 0 170 1
170 20 0 19 -7 20 -155 22 -85 0 -163 -1 -173 -4z"/>
<path d="M720 2850 c0 -18 9 -19 166 -22 169 -3 198 1 188 27 -5 12 -36 15
-180 15 -166 0 -174 -1 -174 -20z"/>
<path d="M4812 2838 c-17 -17 -15 -63 3 -78 20 -17 34 -4 37 35 3 48 -15 68
-40 43z"/>
<path d="M720 2750 c0 -19 7 -20 175 -20 168 0 175 1 175 20 0 19 -7 20 -175
20 -168 0 -175 -1 -175 -20z"/>
<path d="M4776 2674 c-32 -32 -6 -81 37 -70 22 5 27 12 27 36 0 19 -7 33 -19
40 -25 13 -27 13 -45 -6z"/>
<path d="M4222 2497 c-53 -54 -64 -80 -37 -91 20 -7 127 100 123 123 -6 31
-34 21 -86 -32z"/>
<path d="M1917 2524 c-4 -4 -7 -18 -7 -31 0 -16 -6 -23 -19 -23 -25 0 -49 -28
-30 -34 8 -2 22 -6 31 -9 9 -3 18 -18 20 -34 4 -37 32 -37 36 -1 2 20 10 30
28 34 31 8 31 32 0 44 -14 5 -26 19 -28 31 -3 23 -19 35 -31 23z"/>
<path d="M3874 2475 c-3 -13 -15 -27 -25 -30 -25 -8 -24 -25 1 -32 11 -3 20
-14 20 -24 0 -12 7 -19 20 -19 13 0 20 7 20 20 0 11 7 20 15 20 8 0 15 9 15
20 0 11 -7 20 -15 20 -8 0 -15 9 -15 19 0 30 -29 35 -36 6z"/>
<path d="M3537 2483 c-4 -3 -7 -19 -7 -34 0 -23 -5 -28 -36 -33 -46 -9 -44
-40 4 -44 29 -3 32 -6 32 -38 0 -23 6 -37 16 -41 20 -7 34 13 34 50 0 23 4 27
30 27 18 0 33 6 37 15 7 20 1 26 -39 35 -19 4 -32 12 -30 19 7 34 -21 65 -41
44z"/>
<path d="M4672 2431 c-20 -12 -10 -46 13 -46 14 0 20 7 20 24 0 27 -13 35 -33
22z"/>
<path d="M1492 2413 c-15 -3 -22 -10 -20 -21 5 -25 135 -31 145 -6 3 9 0 20
-8 25 -14 9 -75 10 -117 2z"/>
<path d="M880 2387 c0 -8 -9 -22 -20 -32 -20 -18 -20 -19 -1 -36 10 -10 21
-24 23 -31 3 -9 16 -1 39 21 l33 34 -22 15 c-12 8 -22 21 -22 28 0 8 -7 14
-15 14 -8 0 -15 -6 -15 -13z"/>
<path d="M1137 2364 c-4 -4 -7 -33 -7 -64 0 -49 -4 -60 -30 -85 -16 -16 -30
-34 -30 -41 0 -16 -27 -21 -192 -35 -137 -11 -137 -11 -167 12 -16 13 -34 36
-39 50 -21 55 -113 38 -119 -22 -5 -40 22 -64 70 -63 35 1 51 -5 99 -44 55
-42 71 -73 48 -87 -5 -3 -10 -14 -10 -25 0 -21 -77 -73 -142 -96 -57 -19 -75
-51 -53 -94 29 -57 115 -31 119 36 1 19 13 35 44 56 l42 29 27 -20 c31 -25 89
-27 121 -5 20 14 24 14 45 -3 46 -35 117 -101 117 -106 0 -3 -21 -7 -47 -9
-40 -3 -48 -6 -48 -23 0 -16 8 -21 35 -23 27 -3 44 -13 71 -45 32 -37 41 -42
79 -42 36 0 47 6 72 35 25 30 29 41 24 76 -5 40 -5 40 67 94 58 44 78 53 107
52 50 -3 74 17 74 63 0 47 -25 69 -71 60 -26 -5 -42 1 -85 31 -85 59 -96 72
-95 111 1 29 8 39 42 63 61 42 72 57 53 77 -15 14 -20 12 -63 -21 -53 -40 -54
-40 -89 -25 -22 10 -25 19 -28 73 -2 45 -7 62 -18 64 -9 1 -19 0 -23 -4z m61
-186 c21 -21 14 -56 -14 -75 -26 -16 -27 -16 -45 6 -23 28 -24 45 -3 65 18 19
45 21 62 4z m-115 -91 c23 -36 69 -52 109 -38 28 10 36 8 67 -15 20 -14 57
-40 83 -57 26 -18 48 -37 48 -42 0 -6 -39 -39 -86 -74 -77 -57 -88 -62 -110
-52 -17 8 -31 8 -48 0 -22 -10 -32 -5 -104 57 -61 51 -82 75 -86 99 -8 43 -44
74 -97 83 -30 5 -45 13 -47 25 -3 15 6 17 60 18 35 1 88 4 118 9 30 4 60 8 66
9 7 0 19 -10 27 -22z m-186 -161 c-21 -31 -53 -32 -72 -3 -18 28 -11 55 19 67
16 7 26 3 44 -17 21 -23 22 -27 9 -47z m301 -178 c7 -7 12 -24 12 -38 0 -34
-37 -54 -63 -35 -32 23 -16 85 23 85 9 0 21 -5 28 -12z"/>
<path d="M4042 2243 c-35 -14 -42 -58 -42 -276 0 -278 -7 -267 156 -267 93 0
116 -3 120 -15 8 -19 -12 -44 -44 -56 -15 -6 -22 -16 -20 -27 3 -15 20 -17
168 -20 91 -1 175 0 188 3 33 8 27 34 -14 51 -27 12 -35 20 -32 37 3 21 9 22
120 27 102 4 119 8 132 25 13 16 15 60 16 246 0 209 -2 229 -19 250 l-19 24
-349 2 c-191 1 -354 -1 -361 -4z m682 -69 c13 -13 16 -45 16 -199 0 -101 -3
-190 -6 -199 -5 -14 -45 -16 -340 -16 l-334 0 0 209 c0 158 3 211 13 214 6 3
152 6 324 6 271 1 314 -1 327 -15z"/>
<path d="M4153 2074 c-3 -9 0 -20 8 -25 8 -5 120 -8 249 -6 228 2 235 3 235
22 0 19 -8 20 -243 23 -216 2 -243 1 -249 -14z"/>
<path d="M4161 1981 c-8 -5 -11 -16 -8 -25 6 -15 33 -16 249 -14 235 3 243 4
243 23 0 19 -7 20 -235 22 -129 2 -241 -1 -249 -6z"/>
<path d="M4154 1869 c-16 -27 20 -31 247 -30 128 1 236 4 241 7 4 3 8 12 8 20
0 12 -38 14 -244 14 -166 0 -247 -4 -252 -11z"/>
<path d="M1812 2228 c-7 -7 -12 -34 -12 -60 l0 -48 -60 0 c-48 0 -61 -4 -70
-19 -16 -32 12 -51 76 -51 l54 0 0 -74 c0 -55 4 -77 16 -87 31 -25 49 1 54 82
l5 74 57 5 c64 6 83 18 73 49 -6 18 -14 21 -71 21 l-64 0 0 48 c0 47 -12 72
-35 72 -6 0 -16 -5 -23 -12z"/>
<path d="M3474 2085 c-64 -32 -88 -72 -89 -146 0 -46 5 -62 29 -94 50 -65 132
-83 207 -45 120 62 112 233 -15 291 -54 25 -73 24 -132 -6z m110 -52 c40 -19
71 -72 62 -107 -23 -94 -147 -115 -191 -32 -31 58 -7 120 55 145 34 13 35 13
74 -6z"/>
<path d="M3840 1755 c-10 -12 -10 -18 0 -30 17 -21 37 -19 45 5 12 37 -20 55
-45 25z"/>
<path d="M3235 1730 c-7 -12 3 -50 13 -50 18 1 34 19 30 36 -4 21 -33 31 -43
14z"/>
<path d="M2108 1718 c-8 -21 2 -38 22 -38 19 0 30 17 23 38 -3 6 -13 12 -23
12 -10 0 -20 -6 -22 -12z"/>
<path d="M1810 1622 c-31 -10 -50 -36 -50 -69 0 -63 84 -70 112 -8 20 43 -18
91 -62 77z m16 -67 c-7 -18 -26 -20 -26 -2 0 18 24 41 28 27 2 -6 1 -17 -2
-25z"/>
<path d="M1284 1576 c-9 -24 4 -48 23 -44 24 4 24 52 0 56 -9 2 -20 -4 -23
-12z"/>
<path d="M1590 1575 c-20 -25 -1 -35 65 -35 65 0 79 7 69 33 -7 20 -117 23
-134 2z"/>
<path d="M3537 1555 c-19 -19 -12 -45 13 -45 24 0 34 30 17 47 -12 12 -16 12
-30 -2z"/>
<path d="M597 1547 c-10 -25 9 -38 49 -35 32 2 40 7 42 26 3 20 -1 22 -41 22
-28 0 -47 -5 -50 -13z"/>
<path d="M733 1544 c-9 -23 10 -36 48 -32 26 2 35 8 37 26 3 20 -1 22 -38 22
-28 0 -43 -5 -47 -16z"/>
<path d="M3760 1535 c-15 -18 -6 -45 14 -45 22 0 38 34 24 48 -16 16 -23 15
-38 -3z"/>
<path d="M1577 1466 c-7 -17 11 -36 35 -36 23 0 23 -11 -1 -42 -26 -33 -30
-61 -9 -66 20 -4 114 130 103 147 -10 17 -122 14 -128 -3z"/>
<path d="M3960 1465 c-10 -12 -10 -18 0 -30 17 -21 37 -19 45 5 12 37 -20 55
-45 25z"/>
<path d="M3693 1423 c-7 -2 -13 -13 -13 -24 0 -14 9 -21 30 -25 l30 -6 0 -73
c0 -80 18 -110 62 -103 31 4 39 48 9 48 -19 0 -21 6 -21 65 0 65 0 65 28 65
37 0 54 17 41 42 -8 15 -21 18 -82 17 -40 0 -78 -3 -84 -6z"/>
<path d="M1001 1406 c-7 -8 -11 -20 -10 -28 1 -7 1 -27 0 -45 -1 -27 -5 -32
-28 -35 -41 -4 -39 -41 2 -48 l30 -5 5 -245 c5 -230 10 -280 30 -280 15 0 21
121 18 324 l-3 200 25 6 c16 4 26 14 28 28 3 19 -1 22 -27 22 -29 0 -30 1 -33
57 -3 58 -16 75 -37 49z"/>
<path d="M4684 1407 c-3 -8 -6 -52 -8 -98 -4 -104 -2 -94 -30 -107 -13 -6 -27
-20 -31 -31 -12 -40 -42 -36 -90 13 -36 37 -44 53 -47 88 -2 35 -7 43 -23 43
-17 0 -20 -8 -23 -48 -2 -37 -8 -51 -28 -64 -63 -41 -66 -114 -8 -161 43 -34
48 -81 9 -102 -13 -7 -27 -21 -30 -31 -3 -9 -12 -20 -20 -23 -17 -6 -45 2 -45
14 0 5 -16 23 -35 41 -34 33 -35 35 -35 111 0 78 -9 99 -35 78 -11 -9 -15 -34
-15 -91 0 -68 -3 -80 -20 -89 -11 -6 -27 -24 -35 -40 -14 -27 -20 -29 -78 -32
-54 -3 -62 -5 -62 -23 0 -17 8 -21 60 -25 47 -4 68 -11 98 -35 33 -27 37 -35
37 -75 0 -58 9 -90 25 -90 18 0 25 23 25 77 0 41 4 50 42 85 47 43 66 47 91
18 9 -11 21 -20 25 -20 5 0 33 25 61 55 29 30 56 55 62 55 16 0 10 16 -16 40
-36 34 -32 66 15 111 44 43 78 50 98 19 14 -22 41 -27 43 -7 1 6 2 30 3 52 1
40 1 40 43 43 46 3 61 23 36 47 -12 13 -15 35 -14 99 1 45 -1 90 -5 99 -7 20
-33 23 -40 4z m-426 -535 c4 -28 -14 -52 -38 -52 -26 0 -43 26 -36 55 6 22 11
26 39 23 25 -2 33 -8 35 -26z"/>
<path d="M4201 1391 c-20 -36 -10 -91 15 -91 21 0 33 32 25 70 -8 40 -25 49
-40 21z"/>
<path d="M655 1356 c-30 -30 -32 -50 -6 -68 16 -11 19 -29 22 -110 3 -74 8
-101 21 -114 15 -16 17 -14 23 27 3 24 5 98 3 164 -3 104 -5 120 -20 123 -10
2 -29 -8 -43 -22z"/>
<path d="M4185 1249 c-4 -5 -4 -21 -1 -35 5 -17 13 -24 31 -24 31 0 52 34 34
56 -13 16 -55 19 -64 3z"/>
<path d="M1116 1235 c-3 -9 -6 -128 -6 -265 l0 -248 -25 -6 c-67 -17 15 -50
122 -49 39 0 76 4 82 7 16 10 13 43 -4 50 -13 5 -15 43 -15 261 0 225 -2 256
-16 262 -9 3 -20 0 -25 -8 -5 -8 -9 -128 -9 -266 l0 -253 -30 0 -30 0 -2 262
c-3 233 -5 263 -19 266 -9 2 -19 -4 -23 -13z"/>
<path d="M1760 1187 c-27 -14 -38 -43 -21 -60 7 -7 16 -5 30 7 38 34 42 6 6
-37 -40 -46 -41 -50 -20 -67 22 -18 95 63 95 106 0 48 -45 74 -90 51z"/>
<path d="M894 1126 c-3 -8 -4 -73 -2 -144 2 -96 7 -134 18 -147 14 -17 15 -15
22 26 8 56 10 227 2 257 -7 25 -32 30 -40 8z"/>
<path d="M1486 1104 c-23 -22 -20 -52 9 -78 13 -12 36 -55 51 -94 l26 -71 -21
-27 c-26 -33 -27 -91 -3 -120 46 -54 101 -54 151 2 30 33 34 34 102 34 55 0
71 3 76 16 9 24 -15 34 -87 34 -62 0 -66 1 -93 35 -18 22 -36 35 -52 35 -20 0
-27 10 -49 68 -15 38 -26 88 -26 114 0 37 -4 50 -19 58 -27 14 -47 13 -65 -6z
m169 -304 c15 -17 16 -24 7 -45 -14 -31 -56 -34 -72 -6 -14 27 -13 37 6 55 21
21 37 20 59 -4z"/>
<path d="M787 1023 c-13 -12 -7 -48 12 -76 l18 -29 7 46 c4 25 4 50 1 56 -7
11 -28 13 -38 3z"/>
<path d="M1963 1004 c-3 -8 -1 -20 5 -26 16 -16 42 -2 42 22 0 24 -38 28 -47
4z"/>
<path d="M2274 998 c-5 -7 -7 -21 -6 -31 2 -12 -5 -19 -27 -23 -40 -8 -44 -44
-6 -44 20 0 25 -5 25 -24 0 -26 24 -51 40 -41 5 3 10 19 10 35 0 24 5 29 27
32 39 4 42 34 4 41 -23 5 -30 12 -33 33 -3 31 -22 42 -34 22z"/>
<path d="M3146 945 c-3 -9 -6 -25 -6 -35 0 -19 -19 -30 -51 -30 -12 0 -19 -7
-19 -20 0 -20 4 -22 45 -24 15 -1 21 -9 23 -31 7 -63 52 -66 52 -4 0 24 4 29
24 29 33 0 53 25 36 45 -7 9 -22 14 -34 13 -17 -2 -22 3 -26 32 -5 37 -33 53
-44 25z"/>
<path d="M3664 945 c-12 -9 -44 -14 -90 -15 -52 0 -75 -4 -84 -15 -20 -25 -2
-34 85 -41 72 -6 82 -4 104 15 27 24 50 18 28 -7 -19 -23 -11 -42 18 -42 46 0
60 63 22 98 -27 26 -55 28 -83 7z"/>
<path d="M2637 927 c-38 -30 -44 -90 -10 -95 15 -2 25 5 35 25 16 33 58 43 78
18 17 -21 5 -43 -36 -65 -22 -13 -29 -24 -29 -46 0 -44 28 -41 85 7 44 37 50
47 50 80 0 26 -8 47 -26 68 -22 27 -33 31 -72 31 -34 0 -55 -7 -75 -23z"/>
<path d="M1893 873 c-15 -6 -17 -39 -3 -48 20 -12 51 6 48 28 -3 22 -22 30
-45 20z"/>
<path d="M1977 823 c-4 -3 -7 -23 -7 -44 0 -40 -22 -58 -46 -38 -11 9 -18 8
-29 -1 -21 -17 -19 -27 10 -46 45 -30 106 5 119 68 9 46 -22 87 -47 61z"/>
<path d="M3484 795 c-10 -25 4 -45 31 -45 24 0 25 -2 25 -63 0 -69 15 -102 42
-92 14 5 18 22 20 78 3 67 5 72 28 77 18 4 25 12 25 30 0 24 -2 25 -83 28 -67
2 -83 0 -88 -13z"/>
<path d="M2672 678 c-25 -25 -7 -68 29 -68 25 0 42 26 35 55 -7 27 -42 35 -64
13z"/>
</g>
</svg>
