<?xml version="1.0" standalone="no"?>
<!DOCTYPE svg PUBLIC "-//W3C//DTD SVG 20010904//EN"
 "http://www.w3.org/TR/2001/REC-SVG-20010904/DTD/svg10.dtd">
<svg version="1.0" xmlns="http://www.w3.org/2000/svg"
 width="593.000000pt" height="625.000000pt" viewBox="0 0 593.000000 625.000000"
 preserveAspectRatio="xMidYMid meet">

<g transform="translate(0.000000,625.000000) scale(0.100000,-0.100000)"
fill="#000000" stroke="none">
<path d="M2760 6109 c-168 -14 -372 -58 -565 -120 -33 -11 -68 -24 -77 -29
-10 -6 -24 -10 -32 -10 -28 0 -41 -32 -42 -109 0 -42 1 -82 4 -88 3 -10 45
-13 163 -13 l159 0 0 -30 0 -30 -159 0 c-184 0 -168 12 -167 -125 l1 -90 570
-5 c560 -5 571 -5 629 -27 149 -56 276 -186 327 -334 27 -79 37 -228 19 -308
-33 -156 -160 -317 -302 -385 -118 -56 -148 -57 -1147 -55 l-896 1 -5 -63 c-5
-61 -6 -64 -32 -67 -18 -2 -29 2 -30 10 -3 26 -5 54 -7 91 l-1 37 -40 -6 c-24
-4 -52 -2 -70 6 l-30 12 0 145 c0 80 5 153 10 164 9 15 22 19 70 19 33 0 61 3
61 8 1 4 2 50 3 102 l1 95 30 0 30 0 3 -102 3 -103 823 0 824 0 53 28 c44 23
57 36 73 74 35 84 -2 162 -91 192 -41 14 -156 16 -1015 16 -939 0 -969 -1
-987 -19 -37 -37 -158 -257 -200 -366 -5 -11 -13 -31 -19 -45 -18 -43 -59
-163 -71 -210 -7 -25 -16 -58 -21 -75 -8 -32 -18 -86 -46 -250 -24 -139 -24
-499 0 -645 37 -236 93 -429 172 -599 24 -51 44 -97 44 -101 0 -4 6 -13 13
-19 11 -8 30 0 85 39 39 28 74 50 76 50 3 0 25 14 49 31 l45 31 -5 62 c-5 59
-4 64 22 84 52 41 124 36 164 -12 18 -21 16 -99 -3 -128 -18 -28 -14 -38 64
-152 44 -64 46 -65 89 -66 37 0 53 8 118 56 60 46 77 54 88 44 30 -25 17 -55
-42 -96 -58 -40 -58 -40 -55 -87 4 -56 -17 -101 -58 -122 -34 -18 -70 -19
-103 -4 -21 9 -36 2 -133 -62 -60 -40 -111 -74 -113 -75 -18 -14 240 -275 349
-352 25 -18 63 -46 84 -62 l39 -30 406 2 406 3 3 -32 3 -32 -163 -3 -163 -3
-1 -93 c0 -52 4 -99 10 -108 11 -14 128 -60 231 -90 28 -9 64 -19 80 -24 136
-40 429 -80 594 -80 293 0 668 75 919 186 l52 23 0 95 0 95 -152 3 c-140 3
-153 5 -156 22 -2 10 1 23 6 28 6 6 153 10 376 11 l367 0 69 54 70 54 0 127
c1 112 16 230 33 259 3 5 -3 22 -14 39 -22 33 -25 110 -6 134 21 26 63 48 96
52 29 3 39 12 87 92 l53 88 3 122 3 121 28 3 27 3 0 -141 0 -141 -52 -82 c-52
-81 -53 -83 -53 -160 0 -75 -1 -80 -29 -102 -16 -13 -41 -26 -56 -29 -23 -4
-28 -12 -34 -48 -4 -24 -11 -65 -16 -93 -14 -80 -12 -185 3 -185 6 0 66 55
132 123 182 185 326 389 430 605 25 51 45 95 45 98 0 4 6 20 14 37 7 18 18 44
24 58 17 43 79 260 92 324 6 33 14 71 17 85 14 71 33 299 32 400 0 149 -27
390 -58 525 -21 88 -65 241 -81 280 -4 11 -25 62 -45 112 -21 51 -43 97 -50
103 -8 7 -39 -10 -106 -55 l-94 -64 -2 -53 c-1 -43 -6 -57 -28 -75 -14 -13
-32 -23 -40 -23 -21 0 -34 -32 -42 -100 -6 -66 -12 -75 -44 -65 -21 7 -21 11
-15 88 6 74 5 82 -15 104 -27 28 -32 105 -10 146 13 24 10 34 -43 144 -31 65
-60 125 -65 133 -4 8 -24 16 -44 18 -70 6 -107 108 -63 174 16 25 16 31 2 88
-11 42 -16 107 -16 204 l0 143 -47 39 c-108 90 -92 85 -285 82 -95 -2 -176 -7
-179 -11 -3 -5 -4 -53 -2 -107 l5 -99 -27 -7 c-14 -4 -30 -3 -35 2 -5 5 -11
56 -12 114 l-3 105 -140 0 c-168 1 -165 0 -165 23 0 37 19 42 167 42 l143 0 0
90 c0 78 -3 91 -17 96 -10 3 -27 10 -38 14 -11 5 -60 23 -110 40 -326 112
-675 157 -1005 129z m-137 -310 c34 -35 37 -43 37 -94 0 -51 -3 -58 -40 -95
-36 -36 -45 -40 -91 -40 -46 0 -55 4 -90 39 -37 37 -39 42 -39 101 0 59 2 65
35 96 59 55 130 53 188 -7z m920 19 c109 -76 55 -248 -78 -248 -82 0 -135 57
-135 145 0 39 5 50 39 84 54 54 114 61 174 19z m-235 -102 c2 -10 0 -22 -5
-26 -4 -5 -143 -10 -308 -12 l-300 -3 -3 33 -3 32 308 -2 c291 -3 308 -4 311
-22z m898 -377 c54 -37 81 -85 94 -165 7 -40 10 -253 10 -538 0 -259 -1 -479
0 -488 0 -16 12 -18 110 -18 90 0 118 4 149 19 37 19 94 76 103 102 3 9 50 12
198 12 177 0 194 -2 207 -19 16 -22 11 -70 -19 -158 -50 -150 -195 -274 -348
-296 -36 -5 -140 -10 -232 -10 l-168 0 0 -104 0 -104 198 -4 c173 -3 204 -6
256 -26 184 -68 316 -255 316 -445 0 -77 -1 -77 -215 -77 -168 0 -186 2 -191
18 -46 144 -99 183 -256 190 -80 4 -99 2 -103 -10 -3 -8 -7 -224 -8 -479 -2
-348 -6 -474 -15 -502 -18 -53 -92 -124 -145 -138 -93 -25 -189 17 -237 101
l-25 45 -5 490 -5 490 -880 0 -880 0 -3 -286 c-2 -307 0 -328 50 -382 56 -60
69 -62 363 -62 297 0 299 0 360 65 l30 31 7 192 c7 177 9 193 28 209 51 42
200 26 310 -33 105 -56 199 -174 239 -300 16 -52 14 -215 -4 -267 -25 -72 -55
-124 -102 -180 -46 -53 -150 -132 -176 -132 -7 0 -17 -3 -21 -7 -24 -25 -142
-32 -531 -32 -407 -1 -486 4 -592 37 -130 41 -292 182 -352 307 -61 126 -61
124 -61 662 0 434 2 493 16 507 14 14 128 16 1110 16 l1095 0 -3 103 -3 102
-1094 3 c-788 1 -1098 5 -1108 13 -18 16 -19 314 0 326 6 4 505 10 1107 13
l1095 5 5 540 5 540 24 48 c55 111 194 146 297 76z m-2166 -509 l0 -80 -30 0
-30 0 0 80 0 80 30 0 30 0 0 -80z m-753 -651 c48 -18 100 -59 130 -102 25 -38
28 -50 28 -132 0 -98 0 -98 -68 -166 -56 -58 -92 -73 -167 -73 -84 0 -129 16
-180 65 -79 77 -101 180 -56 274 44 95 119 144 223 145 34 0 74 -5 90 -11z
m44 -532 c49 -22 97 -74 109 -119 6 -21 9 -93 8 -160 l-3 -123 -112 -3 c-104
-2 -133 4 -103 23 6 4 10 70 10 165 0 145 -2 160 -19 169 -13 7 -23 6 -35 -2
-16 -12 -17 -31 -14 -185 l3 -173 -110 3 -110 3 -3 131 c-2 101 1 139 13 168
24 57 80 102 150 120 37 9 180 -2 216 -17z m107 -473 c4 -27 -13 -31 -107 -28
-93 4 -103 -3 -100 -69 2 -38 -1 -53 -13 -61 -28 -17 -47 10 -50 72 l-3 57
-85 2 c-47 1 -91 2 -97 2 -14 1 -18 33 -6 45 4 3 108 5 232 4 222 -3 226 -3
229 -24z m1149 -1251 c73 -34 97 -135 47 -200 -28 -36 -71 -63 -104 -63 -32 0
-95 36 -113 64 -20 30 -23 116 -4 149 34 60 108 82 174 50z m961 -16 c76 -70
68 -168 -18 -222 -48 -30 -84 -32 -128 -5 -95 58 -95 203 1 246 43 19 114 10
145 -19z m-243 -103 l0 -29 -307 -3 -308 -2 0 28 c0 16 2 31 4 33 2 2 141 4
308 3 l303 -1 0 -29z"/>
<path d="M1177 4124 c-4 -4 -7 -85 -7 -180 0 -162 1 -172 20 -177 10 -3 26 0
35 7 13 9 15 36 13 181 l-3 170 -25 3 c-14 2 -29 0 -33 -4z"/>
<path d="M1950 5890 c0 -5 -6 -10 -12 -10 -26 0 -238 -117 -238 -131 0 -6 56
-8 138 -7 l137 3 3 78 c2 64 0 77 -13 77 -8 0 -15 -4 -15 -10z"/>
<path d="M3998 5818 c-3 -35 -3 -66 -1 -70 2 -5 60 -8 128 -8 137 0 149 8 72
46 -23 12 -75 37 -114 58 -40 20 -74 36 -77 36 -2 0 -6 -28 -8 -62z"/>
<path d="M1581 5669 c-44 -17 -250 -175 -259 -200 -2 -5 133 -9 327 -9 l331 0
0 110 0 109 -188 -1 c-104 -1 -199 -5 -211 -9z"/>
<path d="M4573 5474 c-8 -20 4 -185 19 -250 10 -48 14 -53 49 -64 66 -22 96
-97 64 -163 l-17 -35 62 -126 c66 -133 71 -140 111 -149 21 -6 46 6 130 63
113 77 114 79 73 142 -13 21 -24 40 -24 43 0 2 -30 51 -66 107 -61 94 -89 133
-164 223 -45 54 -214 225 -222 225 -5 0 -11 -7 -15 -16z"/>
<path d="M1085 2777 c-11 -7 -22 -14 -25 -17 -3 -3 -13 -9 -22 -15 -79 -47
-198 -133 -198 -143 0 -33 172 -272 197 -272 12 0 182 110 216 140 5 4 10 18
11 31 2 13 6 38 10 55 6 27 0 41 -50 110 -31 44 -61 89 -67 102 -11 24 -40 28
-72 9z"/>
<path d="M1677 1764 c-12 -12 44 -47 227 -143 32 -17 62 -28 67 -25 5 3 9 43
9 90 l0 84 -148 0 c-82 0 -152 -3 -155 -6z"/>
<path d="M4000 1763 c-1 -16 -2 -138 -1 -146 1 -10 206 96 232 119 8 8 21 14
27 14 7 0 12 5 12 10 0 12 -270 14 -270 3z"/>
<path d="M4587 1037 c-21 -12 -47 -38 -57 -57 -23 -44 -70 -147 -70 -154 0 -7
-57 -135 -70 -158 -6 -10 -10 -22 -10 -27 0 -5 -13 -38 -29 -73 -16 -35 -44
-99 -61 -143 -18 -44 -37 -84 -41 -89 -5 -6 -9 -25 -9 -42 0 -62 81 -94 149
-59 18 9 37 34 55 72 14 32 30 65 35 73 7 12 37 16 160 18 l151 3 10 -26 c45
-118 79 -155 142 -155 50 0 98 32 98 65 0 19 -36 113 -97 255 -8 19 -18 44
-23 55 -4 11 -15 38 -25 60 -9 22 -28 68 -41 103 -13 34 -30 77 -37 95 -8 17
-23 52 -33 77 -28 69 -44 89 -85 111 -49 24 -65 24 -112 -4z m105 -367 c21
-51 38 -95 38 -97 0 -2 -40 -3 -90 -3 -89 0 -106 7 -82 36 8 8 38 77 62 139 6
15 16 25 22 23 7 -3 29 -46 50 -98z"/>
<path d="M5096 1029 l-26 -31 0 -368 0 -369 26 -20 c50 -39 124 -22 153 36 7
15 11 131 11 363 0 285 -2 346 -15 370 -31 60 -107 70 -149 19z"/>
<path d="M760 1033 c-60 -6 -88 -22 -104 -62 -12 -32 -14 -89 -11 -347 2 -179
8 -321 14 -337 6 -15 25 -36 43 -47 30 -18 51 -20 258 -20 209 0 227 2 259 21
l33 20 44 -20 c52 -25 98 -27 149 -5 35 14 40 14 71 -2 33 -18 35 -18 64 0 29
16 34 17 77 2 62 -21 98 -20 149 4 51 25 72 48 89 96 15 44 3 104 -26 130 -10
9 -56 35 -101 58 -49 24 -83 47 -83 56 0 21 61 25 90 6 33 -22 72 -20 97 4 12
11 24 20 27 20 6 0 25 -34 98 -173 43 -82 45 -89 32 -115 -34 -67 -60 -102
-78 -102 -34 0 -71 -39 -71 -73 0 -38 6 -47 44 -71 25 -16 34 -17 67 -7 72 22
84 40 315 492 50 97 54 131 22 153 -51 36 -105 12 -132 -58 -19 -49 -75 -156
-82 -156 -3 0 -14 21 -25 47 -65 153 -87 183 -133 183 -19 0 -45 -9 -60 -21
l-27 -21 -49 21 c-82 35 -149 26 -233 -32 -15 -10 -20 -9 -30 4 -20 26 -85 49
-139 49 -76 0 -168 -50 -168 -91 0 -10 11 -31 24 -46 22 -25 27 -27 46 -15 12
7 43 16 69 19 40 5 51 2 76 -19 20 -18 26 -30 21 -43 -6 -16 -15 -17 -81 -12
-44 4 -86 2 -102 -4 -37 -14 -83 -58 -83 -80 0 -33 -24 -38 -196 -39 -93 0
-177 -1 -186 0 -15 0 -18 10 -18 59 0 37 5 63 12 67 7 5 67 7 134 5 134 -3
196 9 219 42 21 30 19 80 -4 108 -18 23 -26 24 -188 29 l-168 5 0 65 0 65 196
5 c226 6 239 10 239 82 0 98 -29 110 -273 106 -106 -1 -208 -4 -227 -5z m888
-593 c9 -6 38 -19 65 -30 49 -20 64 -51 31 -64 -63 -24 -134 13 -134 70 0 35
8 41 38 24z m-188 -15 c71 -37 -1 -123 -78 -94 -14 5 -31 17 -38 27 -45 59 39
107 116 67z"/>
<path d="M2313 1025 c-17 -7 -36 -22 -42 -34 -17 -31 -12 -84 10 -111 19 -23
28 -25 117 -27 54 -1 100 -2 105 -3 4 0 7 -130 7 -289 l0 -288 26 -27 c33 -32
84 -35 124 -6 l28 20 3 284 c3 201 8 289 16 297 7 7 42 11 95 10 103 -2 133 8
155 54 16 33 16 37 0 70 -30 63 -46 66 -345 65 -198 -1 -275 -5 -299 -15z"/>
<path d="M3602 922 c-40 -37 -48 -71 -27 -111 31 -62 120 -66 155 -8 32 52 21
100 -30 130 -40 24 -63 21 -98 -11z"/>
<path d="M2869 711 c-23 -19 -24 -24 -27 -202 -2 -100 -1 -197 3 -216 12 -63
73 -92 120 -57 18 13 21 30 25 152 4 93 10 144 20 159 16 25 51 43 82 43 12 0
34 11 48 25 l26 25 18 -35 c21 -38 40 -43 70 -20 44 33 150 5 144 -38 -3 -21
-8 -22 -95 -22 -87 0 -93 -1 -130 -31 -86 -70 -62 -215 44 -259 50 -21 112
-19 152 6 l33 20 22 -20 c28 -26 68 -27 89 -3 15 16 17 45 17 191 0 158 -2
177 -21 211 -29 52 -100 90 -168 90 -51 0 -130 -24 -143 -44 -4 -7 -18 0 -36
17 -35 34 -79 35 -133 5 l-39 -22 -20 22 c-26 27 -70 28 -101 3z m506 -287
c30 -19 33 -61 8 -80 -10 -7 -37 -14 -60 -14 -33 0 -46 5 -62 26 -26 34 -26
41 2 65 27 23 80 24 112 3z"/>
<path d="M3602 707 c-21 -22 -22 -31 -22 -240 0 -212 0 -216 22 -231 33 -23
81 -20 106 7 21 22 22 31 22 234 l0 212 -26 20 c-35 28 -75 27 -102 -2z"/>
<path d="M3792 707 c-21 -22 -22 -32 -22 -229 0 -193 1 -207 21 -232 24 -30
71 -35 104 -10 18 13 21 30 25 163 6 172 14 191 81 191 64 0 69 -12 69 -176 0
-141 1 -146 25 -169 31 -32 74 -33 103 -2 21 22 22 32 22 193 -1 173 -3 184
-45 235 -50 60 -146 77 -218 39 -20 -11 -39 -20 -40 -20 -2 0 -14 9 -27 20
-31 27 -71 25 -98 -3z"/>
</g>
</svg>
